# xmcd
#
# Track frame offsets: 
#        150
#        16825
#        47037
#
# Disc length: 1112 seconds
#
# Revision: 0
# Processed by: cddbd v1.5.2PL0 Copyright (c) Steve Scherf et al.
# Submitted via: ExactAudioCopy v1.0b3
#
DISCID=19045603
DTITLE=DJ Dave - Stand By Me (Remixes)
DYEAR=1900
DGENRE=
TTITLE0=Stand By Me (Radio Version)
TTITLE1=Stand By Me (André Visior Remix)
TTITLE2=Stand By Me (Noémi Remix)
EXTD=
EXTT0=
EXTT1=
EXTT2=
PLAYORDER=
